<svg t="1719996640314" class="icon" viewBox="0 0 1024 1024" version="1.1" xmlns="http://www.w3.org/2000/svg" p-id="5033" width="128" height="128"><path d="M511.23768889 512.64853333m-510.2592 0a510.2592 510.2592 0 1 0 1020.5184 0 510.2592 510.2592 0 1 0-1020.5184 0Z" fill="#201b2d" p-id="5034"></path><path d="M209.66968889 480.38115555s3.69777778-93.03608889 13.49404444-159.3799111c9.79626667-66.33244445 37.39875555-178.52871111 37.39875556-178.52871112l106.66666666 185.05955556-157.55946666 152.84906666z" fill="#FF79B6" p-id="5035"></path><path d="M232.66417778 458.58133333s2.10488889-52.97493333 7.68-90.74915555 21.2992-101.64906667 21.2992-101.64906667l60.73457777 105.3696-89.71377777 87.02862222z" fill="#FFAF40" p-id="5036"></path><path d="M812.29368889 480.38115555s-3.69777778-93.03608889-13.49404444-159.3799111-37.39875555-178.52871111-37.39875556-178.52871112l-106.66666667 185.05955556 157.55946667 152.84906666z" fill="#FF79B6" p-id="5037"></path><path d="M789.2992 458.58133333s-2.10488889-52.97493333-7.68-90.74915555-21.2992-101.64906667-21.2992-101.64906667l-60.73457778 105.3696 89.71377778 87.02862222z" fill="#FFAF40" p-id="5038"></path><path d="M886.24924445 674.31537778c37.39875555 5.34755555 52.69048889-1.51324445 40.07253333-6.58773333-17.14631111-6.88355555-25.82755555-4.4032-41.40373333-21.1968-16.91875555-18.2272-46.40995555-87.99573333-46.40995556-87.99573334l-0.02275556-0.01137778C810.21155555 429.88657778 710.99733333 312.05831111 554.42773333 294.0928c-0.50062222-4.84693333 0.39822222-10.88853333 2.84444445-18.54577778 6.09848889-19.01226667-3.61813333-10.96817778-21.07164445 7.71413333-3.56124445 3.81155555-6.30328889 6.62186667-8.38542222 8.69262223-2.60551111-0.12515555-5.2224-0.21617778-7.85066666-0.28444445 0.37546667-4.72177778 2.57137778-13.08444445 9.55733333-27.8528 14.73422222-31.16373333-4.3008-17.69244445-19.29671111-0.29582222-6.80391111 7.89617778-27.42044445 21.06026667-42.71217778 30.26488889-157.84391111 17.00977778-246.22648889 123.1872-286.70862222 264.74951111l-0.02275556 0.01137778s-29.4912 69.75715555-46.40995556 87.99573333c-15.58755555 16.7936-24.25742222 14.30186667-41.40373333 21.1968-12.61795555 5.07448889 2.67377778 11.92391111 40.07253333 6.58773333 37.39875555-5.34755555 10.37653333 20.19555555 4.89244445 25.37244445-8.72675555 8.24888889-24.43946667 21.7088-35.61244445 28.04622222-18.37511111 10.41066667-2.01386667 13.16408889 1.3312 13.35751111 11.66222222 0.68266667 52.88391111-9.94417778 46.7512889 0-17.92 29.02471111-39.48088889 90.96533333-39.57191112 91.24977778 93.47982222 117.50968889 237.70453333 192.84195555 399.53066667 192.84195556 161.00693333 0 304.58311111-74.56995555 398.10844445-191.05564445l0.01137777-1.77493333s-21.61777778-62.16817778-39.58328889-91.26115556c-6.144-9.94417778 35.07768889 0.68266667 46.75128889 0 3.34506667-0.19342222 19.70631111-2.94684445 1.3312-13.35751111-11.17297778-6.33742222-26.88568889-19.79733333-35.61244444-28.04622222-5.49546667-5.18826667-32.51768889-30.73137778 4.88106667-25.38382222z" fill="#FF79B6" p-id="5039"></path><path d="M357.6372513 545.20225152m-75.95729198 0a75.957292 75.957292 0 1 0 151.91458398 0 75.957292 75.957292 0 1 0-151.91458398 0Z" fill="#FFFFFF" p-id="5040"></path><path d="M357.6372513 623.38361781c-43.11169161 0-78.16663732-35.06967467-78.16663731-78.18136629s35.06967467-78.16663732 78.16663731-78.16663731 78.16663732 35.06967467 78.16663731 78.16663731-35.05494569 78.18136629-78.16663731 78.18136629z m0-151.92931297c-40.66668282 0-73.74794667 33.08126388-73.74794668 73.74794668s33.08126388 73.76267565 73.74794668 73.76267565 73.74794667-33.08126388 73.74794668-73.76267565-33.0665349-73.74794667-73.74794668-73.74794668z" fill="#E8D7D4" p-id="5041"></path><path d="M357.6372513 545.20225152m-52.65606339 0a52.65606337 52.65606337 0 1 0 105.31212677 0 52.65606337 52.65606337 0 1 0-105.31212677 0Z" fill="#7EFFF5" p-id="5042"></path><path d="M375.73915392 524.97937738m-18.10190262 0a18.10190263 18.10190263 0 1 0 36.20380527 0 18.10190263 18.10190263 0 1 0-36.20380527 0Z" fill="#FFFFFF" p-id="5043"></path><path d="M663.82936607 545.20225152m-75.95729199 0a75.957292 75.957292 0 1 0 151.91458399 0 75.957292 75.957292 0 1 0-151.91458399 0Z" fill="#FFFFFF" p-id="5044"></path><path d="M663.82936607 623.38361781c-43.11169161 0-78.18136629-35.06967467-78.18136628-78.18136629s35.06967467-78.16663732 78.18136628-78.16663731 78.18136629 35.06967467 78.18136628 78.16663731-35.08440364 78.18136629-78.18136628 78.18136629z m0-151.92931297c-40.66668282 0-73.76267565 33.08126388-73.76267564 73.74794668s33.08126388 73.76267565 73.76267564 73.76267565 73.76267565-33.08126388 73.76267564-73.76267565-33.09599285-73.74794667-73.76267564-73.74794668z" fill="#E8D7D4" p-id="5045"></path><path d="M663.82936607 545.20225152m-52.6560634 0a52.65606337 52.65606337 0 1 0 105.31212678 0 52.65606337 52.65606337 0 1 0-105.31212678 0Z" fill="#22FF91" p-id="5046"></path><path d="M685.02435215 524.97937738m-18.10190263 0a18.10190263 18.10190263 0 1 0 36.20380525 0 18.10190263 18.10190263 0 1 0-36.20380525 0Z" fill="#FFFFFF" p-id="5047"></path><path d="M478.57208889 653.05031111c0.01137778-9.39804445 63.36284445-7.94168889 63.55626666-0.01137778 0.36408889 14.83662222-21.10577778 35.84-32.21048888 35.88551112-11.04782222 0.04551111-31.35715555-19.63804445-31.34577778-35.87413334z" fill="#FFAF40" p-id="5048"></path><path d="M475.46595555 757.56657778l-2.53724444-2.28693333 35.28248889-39.12817778v-29.77564445h3.41333333v31.08408889z" fill="#F8C8A4" p-id="5049"></path><path d="M544.80213333 757.57795555l-36.60231111-40.12942222 0.44373333-31.09546666 3.41333334 0.04551111-0.43235556 29.75288889 35.70346667 39.12817778z" fill="#F8C8A4" p-id="5050"></path></svg>
